<svg xmlns="http://www.w3.org/2000/svg" width="30" height="29" fill="none" xmlns:v="https://vecta.io/nano"><g filter="url(#A)"><ellipse cx="14.513" cy="14.5" rx="14.513" ry="14.5" fill="url(#B)"/></g><path d="M16.857 11.064H9.442a.74.74 0 0 0-.742.742v6.303a.74.74 0 0 0 .742.742h7.415a.74.74 0 0 0 .742-.742v-2.059c0-.064.076-.098.123-.055l2.967 2.637c.096.085.247.017.247-.111v-7.496c0-.128-.151-.196-.247-.111l-2.966 2.637c-.048.043-.123.009-.123-.055v-1.689a.74.74 0 0 0-.742-.742z" stroke="#fff" stroke-width="1.046"/><defs><filter id="A" x="-8.784" y="-8.784" width="46.593" height="46.567" filterUnits="userSpaceOnUse" color-interpolation-filters="sRGB"><feFlood flood-opacity="0"/><feGaussianBlur stdDeviation="4.392"/><feComposite in2="SourceAlpha" operator="in"/><feBlend in="SourceGraphic"/></filter><linearGradient id="B" x1=".451" y1="14.5" x2="30.865" y2="13.566" gradientUnits="userSpaceOnUse"><stop stop-color="#6c79f1"/><stop offset="1" stop-color="#f30b92"/></linearGradient></defs></svg>