<svg xmlns="http://www.w3.org/2000/svg" width="81" height="81" fill="none" xmlns:v="https://vecta.io/nano"><path d="M78.799 27.518l-1.401-.151a1.33 1.33 0 0 0-.772.154c-.233.131-.428.319-.579.563l-.827 1.332c-.171.276-.505.366-.745.2-.174-.12-.252-.341-.216-.559l.247-1.548c.047-.295.019-.576-.075-.82a1.32 1.32 0 0 0-.478-.606l-1.158-.803c-.241-.166-.297-.525-.126-.802.124-.2.333-.302.53-.28l1.401.151a1.31 1.31 0 0 0 .758-.145c.231-.124.437-.319.593-.571l.827-1.332c.171-.276.505-.366.745-.2.174.12.252.341.216.559l-.247 1.548c-.047.293-.019.575.081.834.102.246.26.445.472.591l1.158.803c.241.166.297.525.126.802-.124.2-.332.302-.53.28z" fill="#ff0089"/><path d="M73.21 33.567l-1.054-.104c-.2-.02-.396.023-.583.126-.177.103-.326.251-.442.441l-.635 1.039c-.131.216-.384.288-.563.162-.13-.092-.187-.262-.158-.431l.2-1.201a1.25 1.25 0 0 0-.049-.634c-.07-.188-.191-.349-.355-.465l-.865-.612c-.18-.126-.219-.404-.088-.62.095-.156.253-.237.402-.222l1.055.104a.98.98 0 0 0 .572-.119 1.26 1.26 0 0 0 .452-.447l.635-1.039c.131-.216.384-.288.564-.162.13.091.187.262.158.431l-.2 1.201a1.26 1.26 0 0 0 .054.645.98.98 0 0 0 .35.454l.865.612c.18.126.219.404.087.62-.095.156-.253.237-.402.222z" fill="#1977f2"/><path d="M79.309 32.632l-.707-.057a.66.66 0 0 0-.394.098c-.121.076-.223.183-.304.319l-.443.746c-.092.155-.263.21-.381.123-.086-.063-.121-.183-.099-.303l.153-.854c.029-.163.02-.317-.023-.449s-.123-.244-.231-.324l-.573-.42c-.119-.087-.141-.283-.049-.438.066-.112.174-.172.274-.164l.707.057a.65.65 0 0 0 .387-.093.93.93 0 0 0 .311-.324l.443-.746c.092-.155.263-.21.381-.123.086.063.121.183.1.303l-.153.854a.93.93 0 0 0 .026.456.65.65 0 0 0 .228.316l.572.42c.119.087.141.283.049.438-.066.112-.174.172-.274.163z" fill="#36c7e1"/><path d="M57.028 47.93c-.09 2.29.754 7.192 4.848 8.485 4.606 1.455 7.794-2.874 8.68-5.422.098-.283.168-.544.209-.773.116-.657.34-.941.603-1 .471-.104.985.391 1.287.995s.379 1.113.459 1.749c.537 4.272-.504 10.651-8.005 11.589-8.619 1.077-14.589-5.145-14.768-7.973l-4.421-3.878 11.109-3.771z" fill="url(#A)"/><path d="M71.469 39.183c.183-.675.878-1.074 1.552-.891s1.074.877.891 1.552l-6.35 23.468a1.18 1.18 0 0 1-1.447.831l-.166-.045a1.18 1.18 0 0 1-.831-1.447l6.35-23.468z" fill="#000d1d"/><path fill-rule="evenodd" d="M50.253 53.423c7.662-3.643 12.959-11.454 12.959-20.503 0-12.531-10.158-22.689-22.689-22.689S17.833 20.389 17.833 32.92a22.61 22.61 0 0 0 6.238 15.626c-.016 1.696-.51 4.189-2.226 5.68-2.102 1.826-7.082 3.597-10.93-2.49-.159-.222-.318-.488-.48-.759h0c-.846-1.417-1.768-2.961-3.255 1.035-1.771 4.759.415 9.085 4.427 10.515 1.603.571 3.273.98 4.961 1.114.242 3.08 3.551 6.149 5.988 6.835 4.658 1.31 12.289-1.532 16.338-9.091l1.331-2.484 1.331 2.484c4.049 7.559 11.68 10.401 16.338 9.091 2.557-.719 6.074-4.062 6.001-7.288s-1.924-1.96-2.84-.923c-4.509 2.551-6.742.983-8.55-.69-1.447-1.338-1.936-3.534-1.999-4.464l-.253-3.687zm-20.23 2.566c-2.6 4.131-5.578 6.299-8.646 7.193 3.226 1.132 5.048-.201 6.569-1.609 1.447-1.338 1.936-3.534 1.999-4.464l.077-1.12z" fill="url(#B)"/><ellipse cx="31.766" cy="29.122" rx="3.444" ry="4.231" fill="#000"/><circle cx="32.729" cy="27.747" fill="#fff" r="1.107"/><ellipse cx="48.297" cy="29.122" rx="3.444" ry="4.231" fill="#000"/><circle cx="49.26" cy="27.747" fill="#fff" r="1.107"/><path d="M37.453 38.867c2.161 1.714 3.386 1.745 5.396 0" stroke="#000" stroke-width=".553" stroke-linecap="round"/><defs><linearGradient id="A" x1="68.308" y1="65.704" x2="42.142" y2="28.759" gradientUnits="userSpaceOnUse"><stop offset=".126" stop-color="#ff4a9f"/><stop offset="1" stop-color="#ff80bf"/></linearGradient><linearGradient id="B" x1="36.251" y1="59.855" x2="39.157" y2="10.277" gradientUnits="userSpaceOnUse"><stop stop-color="#ff499e"/><stop offset="1" stop-color="#ffbbe1"/></linearGradient></defs></svg>