<svg xmlns="http://www.w3.org/2000/svg" width="28" height="28" fill="none" xmlns:v="https://vecta.io/nano"><path d="M17.713 12.027l.659 2.737a3.21 3.21 0 0 0 .922 1.598c.451.422 1.032.724 1.701.867l2.914.619c.279.059.455.32.392.582-.046.19-.203.329-.393.369l-2.914.62c-.67.142-1.251.444-1.701.866a3.21 3.21 0 0 0-.922 1.598l-.659 2.737c-.063.262-.341.428-.62.369-.202-.043-.35-.191-.393-.369l-.66-2.737c-.151-.628-.473-1.174-.923-1.597s-1.031-.725-1.7-.867l-2.914-.62c-.279-.059-.455-.32-.393-.582.045-.19.203-.329.393-.369l2.914-.619c.671-.142 1.251-.444 1.701-.866a3.21 3.21 0 0 0 .922-1.598l.66-2.737c.063-.262.341-.428.62-.369.202.043.35.191.393.369zm3.045-8.646l.305 1.265c.058.24.181.449.363.621a1.37 1.37 0 0 0 .639.321l1.347.286c.279.059.455.32.392.582-.046.19-.203.329-.393.369l-1.347.287a1.36 1.36 0 0 0-.651.33 1.24 1.24 0 0 0-.352.611l-.305 1.266c-.063.262-.341.428-.62.369-.202-.043-.35-.191-.392-.369l-.305-1.265a1.23 1.23 0 0 0-.351-.611 1.37 1.37 0 0 0-.651-.33l-1.347-.286c-.279-.059-.455-.32-.393-.582.046-.19.203-.329.393-.369l1.347-.287a1.37 1.37 0 0 0 .66-.341c.171-.168.286-.37.341-.601l.305-1.266c.063-.262.341-.428.62-.369.202.043.35.191.392.369zM9.663 5.452l.464 1.926c.1.414.312.775.609 1.053l.022.022c.293.267.669.459 1.1.55l2.05.436c.279.059.455.32.393.582-.046.19-.203.329-.393.369l-2.051.436c-.442.094-.825.293-1.122.571a2.12 2.12 0 0 0-.608 1.054l-.464 1.926c-.063.262-.341.428-.62.369-.202-.043-.35-.191-.393-.369l-.464-1.926c-.1-.414-.312-.774-.609-1.053s-.68-.478-1.121-.572l-2.051-.436c-.279-.059-.455-.32-.393-.582.046-.19.203-.329.393-.369l2.051-.436c.441-.094.824-.293 1.121-.572l.023-.02c.284-.275.488-.628.585-1.033l.464-1.926c.063-.262.341-.428.62-.369.202.043.35.191.393.369z" fill="#fff"/></svg>